<svg xmlns="http://www.w3.org/2000/svg" viewBox="-4 0 40 40" fill="none" aria-label="SyneroLabs">
  <path d="M15.0877 2.00098C15.1874 2.0264 15.2861 2.0687 15.3869 2.07464C16.7354 2.15437 17.9878 2.57224 19.1984 3.1353C19.4152 3.23618 19.4354 3.32053 19.3059 3.5445C18.9062 4.23576 18.5002 4.92358 18.0978 5.61342C17.6907 6.31146 17.285 7.01033 16.8788 7.70884C16.85 7.75815 16.824 7.80912 16.7928 7.85677C16.6563 8.06469 16.5903 8.07931 16.3391 8.03392C15.9641 7.96619 15.5862 7.86948 15.2091 7.8677C14.4381 7.86401 13.7123 8.0616 13.0895 8.53746C12.2486 9.17989 11.8242 10.0348 11.786 11.0846C11.7577 11.8645 11.9011 12.5947 12.3857 13.2324C12.7261 13.6804 13.1631 14.0148 13.656 14.2806C14.4546 14.7111 15.266 15.1193 16.0525 15.5703C18.3636 16.8954 20.6874 18.2004 22.9631 19.5831C24.7768 20.6851 26.0456 22.2659 26.6935 24.2957C27.0058 25.2743 27.068 26.2814 26.9915 27.3044C26.8754 28.857 26.2957 30.2458 25.513 31.568C25.4016 31.7562 25.2894 31.9442 25.1698 32.1273C24.9316 32.4917 24.7914 32.5287 24.4149 32.3136C23.8677 32.001 23.3275 31.6764 22.7801 31.364C21.9259 30.8767 21.0682 30.3953 20.2119 29.9114C20.1454 29.8739 20.0787 29.8366 20.0132 29.7973C19.705 29.6128 19.689 29.5338 19.9355 29.2826C20.3345 28.8763 20.6582 28.424 20.8484 27.8848C21.3226 26.5416 20.8651 25.0562 19.6794 24.1845C19.3046 23.909 18.8886 23.6866 18.4831 23.4543C15.8729 21.9597 13.2586 20.4723 10.6498 18.9757C9.57406 18.3586 8.60152 17.6098 7.77794 16.6808C6.97064 15.7702 6.37624 14.7401 6.01846 13.5795C5.96565 13.4081 5.95056 13.2257 5.90039 13.0534C5.85226 12.8876 5.83429 12.6898 5.60547 12.6494C5.60547 11.8902 5.60547 11.1309 5.60547 10.3717C5.65085 10.3305 5.71515 10.2973 5.7379 10.2463C5.78772 10.1342 5.82519 10.015 5.8525 9.89539C6.13149 8.67385 6.59453 7.53074 7.27251 6.46853C8.18913 5.0323 9.32212 3.82455 10.8552 3.02314C11.8803 2.48729 12.9607 2.13381 14.1278 2.07357C14.2188 2.06882 14.308 2.02605 14.3981 2.00098C14.628 2.00098 14.8578 2.00098 15.0877 2.00098Z" fill="black"/>
  <path d="M11.0383 21.632C11.4542 21.8676 11.8184 22.0738 12.1826 22.2801C13.2955 22.9106 14.4084 23.5414 15.5214 24.1717C15.9375 24.4074 15.9589 24.4778 15.7181 24.8792C15.0678 25.9632 14.4158 27.0463 13.7647 28.1299C13.7402 28.1707 13.7154 28.2113 13.6942 28.2537C13.5701 28.503 13.607 28.6311 13.8542 28.7692C14.3292 29.0344 14.8084 29.2924 15.2831 29.5586C17.6727 30.8987 20.0614 32.2405 22.4502 33.5818C22.6583 33.6986 22.8667 33.8151 23.0742 33.9329C23.5154 34.1832 23.5373 34.2709 23.2732 34.7138C22.9033 35.3343 22.5298 35.9528 22.1653 36.5764C21.7624 37.2656 21.368 37.9596 20.9697 38.6515C20.7324 39.0638 20.6385 39.0903 20.2283 38.833C18.3837 37.6764 16.4657 36.646 14.5668 35.5821C12.6429 34.5042 10.7318 33.4039 8.81275 32.3177C7.99037 31.8522 7.16176 31.3973 6.3359 30.9379C5.83814 30.6611 5.79946 30.5208 6.08349 30.0382C7.63138 27.4091 9.17868 24.7795 10.7266 22.1503C10.8212 21.9896 10.9188 21.8305 11.0384 21.6318L11.0383 21.632Z" fill="black"/>
  <path d="M26.2051 7.10038C26.1447 7.23476 26.1012 7.36011 26.0356 7.47275C25.4081 8.54754 24.7753 9.61925 24.147 10.6936C23.1735 12.3584 22.2021 14.0246 21.2307 15.6906C21.0807 15.9479 21.0424 15.9667 20.7838 15.8203C19.7211 15.2184 18.6614 14.6114 17.5998 14.0074C17.2515 13.8093 16.8997 13.617 16.5516 13.4185C16.1926 13.2136 16.1581 13.087 16.3667 12.7316C17.3863 10.9945 18.4083 9.25901 19.4272 7.52158C19.9798 6.57914 20.5278 5.63397 21.0779 4.68998C21.3523 4.21936 21.4089 4.207 21.8785 4.47481C23.1881 5.22156 24.4995 5.96522 25.8099 6.71079C25.8927 6.75796 25.9836 6.79895 26.0504 6.86358C26.1138 6.92501 26.1504 7.01353 26.2053 7.1005L26.2051 7.10038Z" fill="black"/>
</svg>
